REM DIRINDEX 1\6,1\2\7,1\2\8,1\2\9,1\3\10,1\3\11,1\4\12,1\4\13,1\4\14,1\5\15,1\5\16,1\5\17
REM DIRNAME folder01,folder02,folder03,folder04,folder05,folder06,folder07,folder08,folder09,folder10,folder11,folder12,folder13,folder14,folder15,folder16,folder17
TITLE ""
FILE "3Q_t2_0648-0663.mp3" MP3
  TRACK 01 AUDIO
    TITLE "7:cjc041_5361"
    INDEX 01 00:00:00
  TRACK 02 AUDIO
    TITLE "0:"
    INDEX 01 00:00:74
  TRACK 03 AUDIO
    TITLE "8:cjc041_5362"
    INDEX 01 00:01:56
  TRACK 04 AUDIO
    TITLE "0:"
    INDEX 01 00:04:62
  TRACK 05 AUDIO
    TITLE "9:cjc041_5363"
    INDEX 01 00:05:42
  TRACK 06 AUDIO
    TITLE "0:"
    INDEX 01 00:06:51
  TRACK 07 AUDIO
    TITLE "7:cjc041_5364"
    INDEX 01 00:08:28
  TRACK 08 AUDIO
    TITLE "0:"
    INDEX 01 00:09:34
  TRACK 09 AUDIO
    TITLE "8:cjc041_5365"
    INDEX 01 00:10:14
  TRACK 10 AUDIO
    TITLE "0:"
    INDEX 01 00:11:44
  TRACK 11 AUDIO
    TITLE "9:cjc041_5366"
    INDEX 01 00:12:24
  TRACK 12 AUDIO
    TITLE "0:"
    INDEX 01 00:13:33
  TRACK 13 AUDIO
    TITLE "7:cjc041_5367"
    INDEX 01 00:15:15
  TRACK 14 AUDIO
    TITLE "0:"
    INDEX 01 00:16:24
  TRACK 15 AUDIO
    TITLE "8:cjc041_5368"
    INDEX 01 00:17:02
  TRACK 16 AUDIO
    TITLE "0:"
    INDEX 01 00:18:52
  TRACK 17 AUDIO
    TITLE "9:cjc041_5369"
    INDEX 01 00:19:26
  TRACK 18 AUDIO
    TITLE "0:"
    INDEX 01 00:20:36
  TRACK 19 AUDIO
    TITLE "7:cjc041_5370"
    INDEX 01 00:22:19
  TRACK 20 AUDIO
    TITLE "0:"
    INDEX 01 00:23:30
  TRACK 21 AUDIO
    TITLE "8:cjc041_5371"
    INDEX 01 00:24:06
  TRACK 22 AUDIO
    TITLE "0:"
    INDEX 01 00:26:20
  TRACK 23 AUDIO
    TITLE "9:cjc041_5372"
    INDEX 01 00:26:71
  TRACK 24 AUDIO
    TITLE "0:"
    INDEX 01 00:28:08
  TRACK 25 AUDIO
    TITLE "7:cjc041_5373"
    INDEX 01 00:29:60
  TRACK 26 AUDIO
    TITLE "0:"
    INDEX 01 00:30:69
  TRACK 27 AUDIO
    TITLE "8:cjc041_5374"
    INDEX 01 00:31:45
  TRACK 28 AUDIO
    TITLE "0:"
    INDEX 01 00:33:22
  TRACK 29 AUDIO
    TITLE "9:cjc041_5375"
    INDEX 01 00:34:00
  TRACK 30 AUDIO
    TITLE "0:"
    INDEX 01 00:35:08
  TRACK 31 AUDIO
    TITLE "7:cjc041_5376"
    INDEX 01 00:36:72
  TRACK 32 AUDIO
    TITLE "0:"
    INDEX 01 00:38:16
  TRACK 33 AUDIO
    TITLE "8:cjc041_5377"
    INDEX 01 00:38:65
  TRACK 34 AUDIO
    TITLE "0:"
    INDEX 01 00:40:44
  TRACK 35 AUDIO
    TITLE "9:cjc041_5378"
    INDEX 01 00:41:24
  TRACK 36 AUDIO
    TITLE "0:"
    INDEX 01 00:42:45
  TRACK 37 AUDIO
    TITLE "7:cjc041_5379"
    INDEX 01 00:44:26
  TRACK 38 AUDIO
    TITLE "0:"
    INDEX 01 00:45:28
  TRACK 39 AUDIO
    TITLE "8:cjc041_5380"
    INDEX 01 00:46:09
  TRACK 40 AUDIO
    TITLE "0:"
    INDEX 01 00:47:17
  TRACK 41 AUDIO
    TITLE "9:cjc041_5381"
    INDEX 01 00:47:72
  TRACK 42 AUDIO
    TITLE "0:"
    INDEX 01 00:49:02
  TRACK 43 AUDIO
    TITLE "7:cjc041_5382"
    INDEX 01 00:50:62
  TRACK 44 AUDIO
    TITLE "0:"
    INDEX 01 00:52:20
  TRACK 45 AUDIO
    TITLE "8:cjc041_5383"
    INDEX 01 00:52:67
  TRACK 46 AUDIO
    TITLE "0:"
    INDEX 01 00:54:11
  TRACK 47 AUDIO
    TITLE "9:cjc041_5384"
    INDEX 01 00:54:68
  TRACK 48 AUDIO
    TITLE "0:"
    INDEX 01 00:56:27
  TRACK 49 AUDIO
    TITLE "7:cjc041_5385"
    INDEX 01 00:57:74
  TRACK 50 AUDIO
    TITLE "0:"
    INDEX 01 00:59:18
  TRACK 51 AUDIO
    TITLE "8:cjc041_5386"
    INDEX 01 01:00:02
  TRACK 52 AUDIO
    TITLE "0:"
    INDEX 01 01:03:27
  TRACK 53 AUDIO
    TITLE "9:cjc041_5387"
    INDEX 01 01:04:00
  TRACK 54 AUDIO
    TITLE "0:"
    INDEX 01 01:05:24
  TRACK 55 AUDIO
    TITLE "7:cjc041_5388"
    INDEX 01 01:07:04
  TRACK 56 AUDIO
    TITLE "0:"
    INDEX 01 01:08:31
  TRACK 57 AUDIO
    TITLE "8:cjc041_5389"
    INDEX 01 01:09:10
  TRACK 58 AUDIO
    TITLE "0:"
    INDEX 01 01:11:02
  TRACK 59 AUDIO
    TITLE "9:cjc041_5390"
    INDEX 01 01:11:52
  TRACK 60 AUDIO
    TITLE "0:"
    INDEX 01 01:13:12
  TRACK 61 AUDIO
    TITLE "7:cjc041_5391"
    INDEX 01 01:14:70
  TRACK 62 AUDIO
    TITLE "0:"
    INDEX 01 01:16:18
  TRACK 63 AUDIO
    TITLE "8:cjc041_5392"
    INDEX 01 01:16:69
  TRACK 64 AUDIO
    TITLE "0:"
    INDEX 01 01:18:15
  TRACK 65 AUDIO
    TITLE "9:cjc041_5393"
    INDEX 01 01:18:72
  TRACK 66 AUDIO
    TITLE "0:"
    INDEX 01 01:20:18
  TRACK 67 AUDIO
    TITLE "7:cjc041_5394"
    INDEX 01 01:21:74
  TRACK 68 AUDIO
    TITLE "0:"
    INDEX 01 01:23:03
  TRACK 69 AUDIO
    TITLE "8:cjc041_5395"
    INDEX 01 01:23:60
  TRACK 70 AUDIO
    TITLE "0:"
    INDEX 01 01:25:60
  TRACK 71 AUDIO
    TITLE "9:cjc041_5396"
    INDEX 01 01:26:38
  TRACK 72 AUDIO
    TITLE "0:"
    INDEX 01 01:27:46
  TRACK 73 AUDIO
    TITLE "7:cjc041_5397"
    INDEX 01 01:29:29
  TRACK 74 AUDIO
    TITLE "0:"
    INDEX 01 01:30:36
  TRACK 75 AUDIO
    TITLE "8:cjc041_5398"
    INDEX 01 01:31:12
  TRACK 76 AUDIO
    TITLE "0:"
    INDEX 01 01:34:26
  TRACK 77 AUDIO
    TITLE "9:cjc041_5399"
    INDEX 01 01:35:06
  TRACK 78 AUDIO
    TITLE "0:"
    INDEX 01 01:36:17
  TRACK 79 AUDIO
    TITLE "7:cjc041_5400"
    INDEX 01 01:37:66
  TRACK 80 AUDIO
    TITLE "0:"
    INDEX 01 01:39:04
  TRACK 81 AUDIO
    TITLE "8:cjc041_5401"
    INDEX 01 01:39:57
  TRACK 82 AUDIO
    TITLE "0:"
    INDEX 01 01:41:28
  TRACK 83 AUDIO
    TITLE "9:cjc041_5402"
    INDEX 01 01:42:06
  TRACK 84 AUDIO
    TITLE "0:"
    INDEX 01 01:43:21
  TRACK 85 AUDIO
    TITLE "7:cjc041_5403"
    INDEX 01 01:45:00
  TRACK 86 AUDIO
    TITLE "0:"
    INDEX 01 01:46:25
  TRACK 87 AUDIO
    TITLE "8:cjc041_5404"
    INDEX 01 01:47:01
  TRACK 88 AUDIO
    TITLE "0:"
    INDEX 01 01:48:16
  TRACK 89 AUDIO
    TITLE "9:cjc041_5405"
    INDEX 01 01:48:71
  TRACK 90 AUDIO
    TITLE "0:"
    INDEX 01 01:50:23
  TRACK 91 AUDIO
    TITLE "7:cjc041_5406"
    INDEX 01 01:52:02
  TRACK 92 AUDIO
    TITLE "0:"
    INDEX 01 01:53:25
  TRACK 93 AUDIO
    TITLE "8:cjc041_5407"
    INDEX 01 01:53:74
  TRACK 94 AUDIO
    TITLE "0:"
    INDEX 01 01:55:32
  TRACK 95 AUDIO
    TITLE "9:cjc041_5408"
    INDEX 01 01:56:08
  TRACK 96 AUDIO
    TITLE "0:"
    INDEX 01 01:57:31
